<svg xmlns="http://www.w3.org/2000/svg" width="12" height="12" viewBox="0 0 12 12" fill="none">
<g clip-path="url(#clip0_280_18)">
<path d="M9 3C9 2.20435 8.68393 1.44129 8.12132 0.87868C7.55871 0.31607 6.79565 0 6 0C5.20435 0 4.44129 0.31607 3.87868 0.87868C3.31607 1.44129 3 2.20435 3 3H0V10.5C0 10.8978 0.158035 11.2794 0.43934 11.5607C0.720644 11.842 1.10218 12 1.5 12H10.5C10.8978 12 11.2794 11.842 11.5607 11.5607C11.842 11.2794 12 10.8978 12 10.5V3H9ZM6 1.5C6.39782 1.5 6.77936 1.65804 7.06066 1.93934C7.34196 2.22064 7.5 2.60218 7.5 3H4.5C4.5 2.60218 4.65804 2.22064 4.93934 1.93934C5.22064 1.65804 5.60218 1.5 6 1.5V1.5ZM10.5 10.5H1.5V4.5H3V5.5H4.5V4.5H7.5V5.5H9V4.5H10.5V10.5Z" fill="#131313"/>
</g>
<defs>
<clipPath id="clip0_280_18">
<rect width="12" height="12" fill="white"/>
</clipPath>
</defs>
</svg>