<svg xmlns="http://www.w3.org/2000/svg" width="14" height="14" viewBox="0 0 14 14" fill="none">
<path d="M12.25 14.0004H10.5V11.0837C10.5 10.7743 10.3771 10.4775 10.1583 10.2587C9.9395 10.0399 9.64275 9.91702 9.33333 9.91702H4.66667C4.35725 9.91702 4.0605 10.0399 3.84171 10.2587C3.62292 10.4775 3.5 10.7743 3.5 11.0837V14.0004H1.75V11.0837C1.75093 10.3104 2.05851 9.5691 2.60529 9.02232C3.15208 8.47554 3.8934 8.16795 4.66667 8.16702H9.33333C10.1066 8.16795 10.8479 8.47554 11.3947 9.02232C11.9415 9.5691 12.2491 10.3104 12.25 11.0837V14.0004Z" fill="#111111"/>
<path d="M7 6.99997C6.30777 6.99997 5.63108 6.7947 5.05551 6.41011C4.47993 6.02553 4.03133 5.4789 3.76642 4.83936C3.50152 4.19982 3.4322 3.49609 3.56725 2.81716C3.7023 2.13822 4.03564 1.51458 4.52513 1.0251C5.01461 0.535614 5.63825 0.202271 6.31719 0.0672226C6.99612 -0.0678257 7.69985 0.00148598 8.33939 0.266393C8.97893 0.531299 9.52556 0.979903 9.91014 1.55548C10.2947 2.13105 10.5 2.80774 10.5 3.49997C10.4991 4.42794 10.13 5.31765 9.47385 5.97382C8.81767 6.63 7.92797 6.99905 7 6.99997V6.99997ZM7 1.74997C6.65388 1.74997 6.31554 1.85261 6.02775 2.0449C5.73997 2.23719 5.51567 2.5105 5.38321 2.83028C5.25076 3.15005 5.2161 3.50191 5.28363 3.84138C5.35115 4.18085 5.51782 4.49267 5.76256 4.73741C6.00731 4.98215 6.31913 5.14882 6.65859 5.21635C6.99806 5.28387 7.34993 5.24921 7.6697 5.11676C7.98947 4.98431 8.26278 4.76001 8.45507 4.47222C8.64737 4.18443 8.75 3.84609 8.75 3.49997C8.75 3.03584 8.56563 2.59072 8.23744 2.26253C7.90925 1.93435 7.46413 1.74997 7 1.74997Z" fill="#111111"/>
</svg>