<svg xmlns="http://www.w3.org/2000/svg" width="12" height="12" viewBox="0 0 12 12" fill="none">
<path d="M11.7806 10.7227L9.45805 8.39915C11.1959 6.07676 10.7221 2.78526 8.39967 1.0474C6.07728 -0.69046 2.78578 -0.216602 1.04792 2.10578C-0.689941 4.42817 -0.216084 7.71967 2.1063 9.45753C3.97184 10.8535 6.53411 10.8535 8.39967 9.45753L10.7232 11.7811C11.0152 12.0731 11.4886 12.0731 11.7806 11.7811C12.0726 11.4891 12.0726 11.0157 11.7806 10.7237L11.7806 10.7227ZM5.27235 9.00906C3.20832 9.00906 1.53511 7.33586 1.53511 5.27183C1.53511 3.2078 3.20832 1.5346 5.27235 1.5346C7.33637 1.5346 9.00958 3.2078 9.00958 5.27183C9.00739 7.33492 7.33546 9.00687 5.27235 9.00906Z" fill="#131313"/>
</svg>